<mxfile host="65bd71144e">
    <diagram name="Page-1" id="kF0lqSSJUAa9ffx5FKbO">
        <mxGraphModel dx="803" dy="444" grid="1" gridSize="10" guides="1" tooltips="1" connect="1" arrows="1" fold="1" page="1" pageScale="1" pageWidth="850" pageHeight="1100" math="0" shadow="0">
            <root>
                <mxCell id="0"/>
                <mxCell id="1" parent="0"/>
                <mxCell id="WJuXoSgcOFtOYXTd2K2z-18" value="Proposal CrÃ©dit Arquiteture" style="fontStyle=0;verticalAlign=top;align=center;spacingTop=-2;fillColor=none;rounded=0;whiteSpace=wrap;html=1;strokeColor=#00882B;strokeWidth=2;dashed=1;container=1;collapsible=0;expand=0;recursiveResize=0;" parent="1" vertex="1">
                    <mxGeometry x="80" y="160" width="540" height="370" as="geometry"/>
                </mxCell>
                <mxCell id="WJuXoSgcOFtOYXTd2K2z-20" value="" style="aspect=fixed;sketch=0;html=1;dashed=0;whitespace=wrap;verticalLabelPosition=bottom;verticalAlign=top;fillColor=#2875E2;strokeColor=#ffffff;points=[[0.005,0.63,0],[0.1,0.2,0],[0.9,0.2,0],[0.5,0,0],[0.995,0.63,0],[0.72,0.99,0],[0.5,1,0],[0.28,0.99,0]];shape=mxgraph.kubernetes.icon2;prIcon=user" parent="WJuXoSgcOFtOYXTd2K2z-18" vertex="1">
                    <mxGeometry x="40" y="163" width="50" height="48" as="geometry"/>
                </mxCell>
                <UserObject label="Bank.Clients.Api" placeholders="1" name="Variable" id="WJuXoSgcOFtOYXTd2K2z-15">
                    <mxCell style="text;html=1;strokeColor=none;fillColor=none;align=center;verticalAlign=middle;whiteSpace=wrap;overflow=hidden;" parent="WJuXoSgcOFtOYXTd2K2z-18" vertex="1">
                        <mxGeometry x="140" y="210" width="103.96" height="20" as="geometry"/>
                    </mxCell>
                </UserObject>
                <UserObject label="User Application" placeholders="1" name="Variable" id="WJuXoSgcOFtOYXTd2K2z-27">
                    <mxCell style="text;html=1;strokeColor=none;fillColor=none;align=center;verticalAlign=middle;whiteSpace=wrap;overflow=hidden;" parent="WJuXoSgcOFtOYXTd2K2z-18" vertex="1">
                        <mxGeometry x="15.02000000000001" y="221" width="103.96" height="20" as="geometry"/>
                    </mxCell>
                </UserObject>
                <mxCell id="2" value="" style="image;sketch=0;aspect=fixed;html=1;points=[];align=center;fontSize=12;image=img/lib/mscae/Azure_Database_for_PostgreSQL_servers.svg;" vertex="1" parent="WJuXoSgcOFtOYXTd2K2z-18">
                    <mxGeometry x="172.98" y="265" width="38" height="50" as="geometry"/>
                </mxCell>
                <mxCell id="WJuXoSgcOFtOYXTd2K2z-1" value="" style="image;sketch=0;aspect=fixed;html=1;points=[];align=center;fontSize=12;image=img/lib/mscae/Azure_Database_for_PostgreSQL_servers.svg;" parent="1" vertex="1">
                    <mxGeometry x="247.04" y="200" width="38" height="50" as="geometry"/>
                </mxCell>
                <mxCell id="WJuXoSgcOFtOYXTd2K2z-5" style="edgeStyle=orthogonalEdgeStyle;rounded=0;orthogonalLoop=1;jettySize=auto;html=1;" parent="1" source="WJuXoSgcOFtOYXTd2K2z-2" target="WJuXoSgcOFtOYXTd2K2z-1" edge="1">
                    <mxGeometry relative="1" as="geometry"/>
                </mxCell>
                <mxCell id="WJuXoSgcOFtOYXTd2K2z-9" style="edgeStyle=orthogonalEdgeStyle;rounded=0;orthogonalLoop=1;jettySize=auto;html=1;" parent="1" source="WJuXoSgcOFtOYXTd2K2z-2" target="WJuXoSgcOFtOYXTd2K2z-8" edge="1">
                    <mxGeometry relative="1" as="geometry"/>
                </mxCell>
                <mxCell id="WJuXoSgcOFtOYXTd2K2z-2" value="" style="aspect=fixed;sketch=0;html=1;dashed=0;whitespace=wrap;verticalLabelPosition=bottom;verticalAlign=top;fillColor=#2875E2;strokeColor=#ffffff;points=[[0.005,0.63,0],[0.1,0.2,0],[0.9,0.2,0],[0.5,0,0],[0.995,0.63,0],[0.72,0.99,0],[0.5,1,0],[0.28,0.99,0]];shape=mxgraph.kubernetes.icon2;kubernetesLabel=1;prIcon=api" parent="1" vertex="1">
                    <mxGeometry x="240" y="315" width="52.08" height="50" as="geometry"/>
                </mxCell>
                <mxCell id="WJuXoSgcOFtOYXTd2K2z-12" style="edgeStyle=orthogonalEdgeStyle;rounded=0;orthogonalLoop=1;jettySize=auto;html=1;entryX=0.967;entryY=0.633;entryDx=0;entryDy=0;entryPerimeter=0;" parent="1" source="WJuXoSgcOFtOYXTd2K2z-4" target="WJuXoSgcOFtOYXTd2K2z-8" edge="1">
                    <mxGeometry relative="1" as="geometry"/>
                </mxCell>
                <mxCell id="WJuXoSgcOFtOYXTd2K2z-4" value="" style="verticalLabelPosition=bottom;html=1;verticalAlign=top;align=center;strokeColor=none;fillColor=#00BEF2;shape=mxgraph.azure.worker_role;" parent="1" vertex="1">
                    <mxGeometry x="511" y="328" width="50" height="40" as="geometry"/>
                </mxCell>
                <mxCell id="WJuXoSgcOFtOYXTd2K2z-8" value="" style="shape=image;verticalLabelPosition=bottom;labelBackgroundColor=default;verticalAlign=top;aspect=fixed;imageAspect=0;image=data:image/png,iVBORw0KGgoAAAANSUhEUgAAAooAAAKKCAYAAAC6dHqMAAAjq0lEQVR4Ae3de7SVZb3o8WeuG4urLDIDhYzaXkDNCymgWImJKVlHoL2zO5hbHWrqKG2Lp6uY5OWoGWoXb6c8joyLpqZJwbFM0e2IYR0hy3JsxfAOGxQW6zbP+6wx2b3jbbF7JyxYc835+YzxjMVm7H+ay8n7fX/PewkAAAAAAAAAAAAAAAAAAAAAAAAAAAAAAAAAAAAAAAAAAAAAAAAAAAAAAAAAAAAAAAAAAAAAAAAAAAAAAAAAAAAAAAAAAAAAAAAAAAAAAAAAAAAAAAAAAAAAAAAAAAAAAAAAAAAAAAAAAAAAAAAAAAAAAAAAAAAAAAAAAAAAAAAAAAAAAAAAAAAAAAAAAAAAANAfFMLORkuyBierMUS0J+vNZK0L4HviuwIIxdo80OX4fCk6KPqu+J7UwncFEIoOeAWfb9mKPf1dzR0IfVcKoSL5rgA0BHbkoNcUSno1FGkqrcEOgtUXh0KxVr4rgFAUiIW8ofj9739//O677z4slHR1dRVCDairqyuGlJNPPnlFTRwEGZmsQaEkbyh++MMf3m327NnjQpT6rtTa9+SJJ5544dJLL33edwWw9dw/D3yFbR384oHu/PPPn7jPPvscPmzYsHGDBg3av76+PgZiCps3b17d2tr6wtq1a//9kUceeey0005b1cMWWzHzs61fHASdTA3pcYqY+fOSJUsmvfvd7z6ipaVl/+bm5r0GDhwYAzGFzs7ODZs2bfrDhg0bVv/pT3/696uvvvqxn/70p/+Z47uyKVkvBgCh2AcHvszPD33oQ8Pnz58/453vfOdHtu9gR0dHx8bXX3/9Fw8//PBdM2fOXFE64BX79UHQyVQ2DguLFi2aNGXKlP8xYsSIDzQ0NAwNlG3dunW/eOaZZ5Z94xvf+MW99967PvsdyVy/+IYTK2BXh6IDX+nPF1100ZjzzjvvrD322OPk0Gtoa2t74cknn1xwxBFHLEoFY387CDqZSp1IfeUrX/nAwQcffFZTU9NeoVc5ubrmmmsWXHbZZc9nvytOrAChuHONStbA9IFPIPZZMC6Ol6r1u4Ogk6m6FStWzJwwYcK/mR7uXC+//PKSOXPmzL/vvvvihLHYQzRuTtbaACAUez0S44rq4p+TLZ9z9t5770/vugMfGzdufPz222+ff+aZZz7VLw6CTqbqbrjhhvGf/vSnvxmv0Q27jAnj008/veDAAw+8tfS96Ep9R3xPgF4KRUb1MCGp+9KXvjQm2T67zoGv7/z+97//VnLzQzwIdjkIVuzJVF1yMnX2u971rrMCfXZidcopp5yzjeniJt8ToBx1gX8YiUuXLp02b968xSKxbx100EFfevHFFy+bPn368K0T3tQaVPr97Tq+J4XUqou/l/Xr1/9vkdi3hg4desRdd931iwULFhyY+Z4E3xPARLH3IrEurkcffXTmpEmT5gUqRnxcyKxZsz57//33x4lJl4lJ359MXXjhhW//6le/+m0nU5UluUb0f06ePHlRagpf3d8TwERRJBJjZOHChbeecMIJcbJY38PEZERgZxjRQyTWX3fddQcmD4deJBIrT/z3K/47tvXftN6ZLAImiiKxPvnHdUZvRmKxdUMorl0ValrzsFA3anyvThaTZy7OfuCBB+JksTM1WWxL1prSn+m9fytGJ6sp9T2Jk8QxMRJ78+aurvg9Sb4vtayQfE8KzcN6e7K4OH5PMpPFdcl6PQAIxW1OSFqykfib3/xm5pFHHnnJjh7sOlYu6o7DzmfTb62j0DI61I0cH+rHHxfqx02LB8Tej8XSY3PEYq8obH0MTnqS+MEPfnB4nOwOHjx4v7CdiuvXhM5VDybfkcdC14urQnHdmvA31I+dFOqSVT/uuB0+yfrxj38852Mf+9iKVCw6qSoTCEUTkriNNv6MM864pewJSWlq2PHILUkgLnTAK0OMxcYjZ3cfELdH8hrAu/fcc8+L4wEwHYumJb18QpWKxLheffXVb7/lLW+ZGrZDV3Ly1J58VzpXPxjyc4LVOHl2qD9sVvknV6XH5yTPgJ115ZVXPpe5ZtFJFSAUMwqlA19Lehvt+OOPb7n77rsXDhgwYM9QpvZl1yaReHN3LG4/05PGE7+8XZOTZAr8leTVcIt6mJY87wC4w9+VMZkTqoaVK1d+5pBDDrlguwJx2bWm7DsgRmLj1HNDw5FzQrnefPPNp4cMGTLTSVV5QCg6+NXH9Ze//OWisWPHfqLcLea2xRd0/6R3NE49Lx4Iy56WJNfL/fPVV1/9XPw/U7G4Li6x2GsnVA3JK+MOOPfcc+8MZWr72SXdJ1P03olV08wrQmH46FCO5KHcN+6///7fycSikyrAXc+pg9+I7JZz8uaPSeVGYtxi3nLTKSKxl7UvuyZ+rmVNZ+OlAnPnzr0w/j4zd3gOCTuCIenvSfz5mc985sJyL8loXTBdJPayOJVt/c707iltOfbbb78zzj///DGp70nU+LcTAgCPxxmcfRRO8qiVM8uNxLZFF9hq3okHwXJjcffddz/mhz/84aTMI3OaSicGhbCjnFDVPfTQQzOHDx/+nnIi0clUL8tGePL5xn+PypG8ZeqSnCdVgFB08LvnnnuOa2lpmVBuJLJzxbgoNxaTt4OcEUMxFYvR4EBvnFDVT5w48V9FYsWJ/x6VdWNQjP3bbrttcjoUnVQBQrHng1/DUUcd9fFy4kUk7jrlft4x+JMD4MT4+3UA7N0TquXLl88o50avtttPF4m7OBbL+bxPOumk07deTuCkChCKqa3I9MHv1ltvnRjjIveE5P+cHti14qSknOvbkrvX47WmDb12ADRNjDHRMGHChFNCTn1zZ7Nt6LbF5Z1UnX322WN6OKkqlFaNAUwUe3i49tSpU08q5+Dn+Yh9I3728eHMebztbW9731lnnVW6WN8BsBdOqArz588fP3To0H3zPkQ73pDUN0zg43clr+Tu9Z5OqloCQI1OFNN3cMZVP3LkyPfnPfi5a7NPpyVlHQA/9alPHRt/vw6AvXJC1TBjxoyTytkC7TPEf6dyn1SNHj36/anredM3tTipAmpyotiYDsXFixcf29jYOCTvRKtv0fHbhbkPgPvss897yz4AUtjGCVXdmDFj3pfzgdr9aMvZSVVzc/Oob37zm+MyTwpoDAA1/hzFuBoOOOCACXmniTFS+h7xtW95jBgx4rCjjz56eObu58ZA/hOqUiyefvrpY2JQhBzi+837HPH92TEY8z4p4JjM9B2gJkNxRPrgF1ey7XxY3n90KwOd+YM9bj/vnzoAxpUXqet4k23nw3NOsirnhMpUMffjcvbaa6/DMtfzFjL/XgJCsSYMzl6fOGzYsH3y3XW7NFQMB8DcjwA5/PDDJ6QOdtlFVs+fU90ee+wxKu+2cyUxVVwa8ij9O5g9oRocABJ1NbqdVv/1r399/3LeElI5yBnu8aHCo7a9pSYWMwrbmigm1ycemu978lioHOQN93iddvIs2d3i79t1ioA3s5RW8rq3YaYk/VLuieKQIUNG9bClRt5t59KK79EOORQr7uHapu95b/76+Mc/vr+JO+DxOKmD4IEHHrhf3n9sKww5fyeDBw8emY1EB8HcJ1NRXVy77bbbP+UN+IpC7ue+FovF9NMBsgsQijWjbusaNGjQkHwHv9WhspD3UoCBAweWQrHsSCQTCk6q+qP8v5N3vOMde6ZDseYu0wCEYvaO59IZdJVjh7edRWJd6J/If6Ib32Y00mUagIki7uTNjdoJRUonzqVlAg+4RrFgolhzoVg+CgG/c0Ao+scQsYjviImi3z8gFEtMFAUPPj/8roEeeNczAE6cgRyhCOCkCr9zQCi6m8/BDwAQigA4kQaEIgAAQhEAAKEIAIBQBABAKAIAIBQBABCKAAAIRQAAhCIAAEIRAACEIgAAQhEAAKEIAIBQBABAKAIAIBQBABCKAAAIRQAAhCIAAEIRAAChCACAUAQAAKEIAIBQBABAKAIAIBQBABCKAAAIRQAAhCIAAEIRAAChCACAUAQAQCgCACAUAQBAKAIAIBQBABCKAAAIRQAAhCIAAEIRAAChCACAUAQAQCgCACAUAQAQigAACEUAAIQiAAAIRQAAhCIAAEIRAAChCACAUAQAQCgCACAUAQAQigAACEUAAIQiAABCEQAAoQgAAEIRAAChCACAUAQAQCgCACAUAQAQigAACEUAAIQiAABCEQAAoQgAgFAEAEAoAgCAUAQAQCgCACAUAQAQigAACEUAAIQiAABCEQAAoQgAgFAEAEAoAgAgFAEAEIoAAAhFAAAQigAACEUAAIQiAABCEQAAoQgAgFAEAEAoAgAgFAEAEIoAAAhFAACEIgAAQhEAAIQiAABCEQAAoQgAgFAEAEAoAgAgFAEAEIoAAAhFAACEIgAAQhEAAKEIAIBQBAAAoQgAgFAEAEAoAgAgFAEAEIoAAAhFAACEIgAAQhEAAKEIAIBQBABAKAIAIBQBAEAoAgAgFAEAEIoAAAhFAACEIgAAQhEAAKEIAIBQBABAKAIAIBQBABCKAAAIRQAAhCIAAAhFAACEIgAAQhEAAKEIAIBQBABAKAIAIBQBABCKAAAIRQAAhCIAAEIRAAChCAAAQhEAAKEIAIBQBABAKAIAIBQBABCKAAAIRQAAKjwUAQBAKEJLwOcDgFCEHgwO+HwAEIpw+OGHDwl/U0hWQ+C/01D6nLrNnTv3n0IOxdYNoSJgugwIRSiuXxPy+PznP39oKhKjggPgNrVkPqcwadKkfUIOxbWrQv/F2LFjDzJdBqomFKG4Ll8oHpnIxE80pPTnZJH6LIZk/u/ChAkTjgw5dMVwrzh0Pbsi5LHHHnscnJwU9DR9bwn9DSAUofPZx0IeY8aMmXLUUUcNjf+tpwKoMVmjHQT/S0vp82hMR+Kpp566Z2JKriBZuzpUHrrKmPRef/31/5z6/aen76Oq8qQKEIqYlDQ2Ng65+eabT+1hqthUOgiOqeFgTP/vb8pu0c+bN+/ccn4flYd47WjeWDzwwAM/esYZZ+zZw7R9oBMrqF0NoR+CziRM4kGw0Dws/CP77rvvvyxfvvwPxxxzzKLUQbCYCca4iqF2ZMM5veVct2zZso+MHDnyvXmvF40xUrmcVNWNGp/rpOryyy+/4sYbb/yX0hAhrq5+9j2B9mS9max1gdoORehc/WBoOHRWyOP973//V3/1q191vfe9711UOtB1uS4x+7M7DOqTz+nko48++ishp47fLgqVi/ZHbwkNR84JeQwdOnTfNWvWfGPOnDnzH3zwwddTJ1WF0D9AU2kNr/FwFIrQvuza3KEYJfHz9aeffnrkeeedd9v999+/PsZiDR8Es5PEuhNOOGF4Mk066+1vf/unQhk6Vi4Mlc2NX91TxbGTQh577bXXSYsXL973lltuuficc855KkSmiP2fcBxcg8EoFHEAjJFSRizGbegzlyxZ8pFkarLkpptuWnLZZZc9XzoI1uxE8YYbbjjg2GOP/UDyiJRPNTQ0DC03EuPvofI5qRpw6qSQ1+DBg/c7++yzF370ox+966mnnvpl8t/HUlN4ajMYKYTasV/prs4ByRq4YsWK0ydOnPjJHP/AJuuaUJkotIwOzWfdV7pWsXwdHR0bN2/evDrUprjVeMSO3CjReuXR3T8rHwM+8d1QP25a2F6bNm36Q2dn54ZQQaC1tXXNxo0b//raa6/99cknn1x12mmnrdrGFLyY+dlWI8EoFIUi8fqrphO/HNi1ttx+evd1ov0D8WSq+Yu/7v5ZzSAJx8efe+65ZXfcccfSSy+99PlUINZiMHo8DnQ8cvMuDhbilnP/+8w9KqctiXuohZ2SAw444N+SR3z9csOGDT96/PHHZ6WfpZteqTv6RwaqNxShbdEFu/ARLR7iHD9v+udjpdoW19bvDtGYvPP/m1u2bFlWCsb6bQTjoNLD5anWUMS0ZMtNp+yCWBSJ8XOm/+r47cKai0VoamraqxSMv1y0aNHkbUwYB9ZALApFxOJOe0uI7eb4+fbrm1cQiwjGGTNm3JZcw3jx9OnTW2IH1dhkUSgiFluTmIk3IdF72n52SdxurrJIFIutC6Z3v1kHas2YMWM+feedd94WHw+WicVQA7EoFCHeqR4Pgjs+XfT6t81XHd19wxDVeSlB63emxxOrmjsJgEGDBu3/uc997raf//znx8drF2sxFoUiDoI3nRK3S92hu33bzPHz80DtGpjCd59YXXl0zQUjxJcMTJs27dpHH310ZikW62ovFoUi7vSMz/yLk7F4XVaMxsx2G/HziHEYP5/N8w6O28zdnxu1F4zx9x+/L3GKXCsTeZg0adK8UizW1XIseoUfXvm3bmH3tVlb1Y0aX9MPII5x4E5xsuLJVFzph3XH70qlgfgO80Lz0Pgz/jfaG7EYJk+evHjrxlSyiqVYHJGs14Ui1JZ8kQSmjRU7YcaOUfqEpn78tNAwefZ2R+N73vOeL1133XV/OOecc1ZlYnFw6e0tRVvPAAD98ISmdDf/dj8qLV6zmLwv+tvHH3/88NQ2dPoNLgWhCADQzyeN8Wa8tsXlP9ZrwIABe/7oRz+6NHNzS1xD3MwCAFBlzwst9zKj3Xff/Zjbb799UiYWm0rXKhaEIgBAldzIGLei45MdyjFz5sxv9HAX9GATRQCAKrt+MT72q5xYjFvQTzzxxGdiK1X5VFEoAgDEWCxnG/rggw/+1+RHQw1MFYUiAEDcho4Txrx3QS9fvvzkGpoqCkUAwDZ0XhMmTDglNmPqxpZqnioKRQDA24fyPmdx6NCh+86fP3985lE5TSaKVQoAoH3ZtSGvE0888ZjMo3KiFqEIAFCdD+XOPVXce++93xebKbWq+QHcQhEAoGPlopDHsGHD9pkyZUpLZvu5UShWKQCAzlUPhrw++clP7p/dfhaKAADVewd07u3niRMnHpaeKLqZBQCg6q9VfCzvm1qGxm4yUQQAqA2539Ty1re+dZ/U1rOJYtUDAMj5lpaurq5Cz9vOQhEAgNS2s4kiAAApJooAAGQUi8VtBqJQBACg4PE4AADQG6EIAIBQBACw9SwUAQAwUQQAAKEIAIBQBABAKAIAIBQBABCKAAAIRQAAhCIAAEIRAAChCACAUAQAQCgCACAUAQBAKAIAIBQBABCKAAAIRQAAhCIAAEIRAAChCACAUAQAQCgCACAUAQAQigAACEUAABCKAAAIRQAAhCIAAEIRAAChCACAUAQAQCgCACAUAQAQigAACEUAAIQiAABCEQAAYigCAIBQBABAKAIAIBQBABCKAAAIRQAAhCIAAEIRAAChCACAUAQAQCgCACAUAQAQigAAIBQBABCKAAAIRQAAhCIAAEIRAAChCACAUAQAQCgCACAUAQAQigAACEUAAIQiAAAIRQAAhCIAAEIRAAChCACAUAQAQCgCACAUAQAQigAACEUAAIQiAABCEQAAoQgAAA0BAHZAoXlYqBs1PvRnnc+uCMAOhiIA1I+dFOqSVT92YigkgRhDsRoU168JXWtXJdH4WOhKwjH+GYQiAOSIw/rDZob6cdNKYVh9CsNHh/q4xk37r3DsXPVgaH/0llBctyaAUASAlIbDZoWGybNzbC1XZzg2HDknru4JY/uya21R42YWAIgTxIFf/HVomnFFKRJrW9xqH3DqHaE5WTX7eSAUAXBjyoBPfDdGUfdEjb8Pxuaz7gtNJ365+7OCmghFAIjX5jUnU8T4879H3I4eYLqIUASgFjROPS9OEsuYkhEjMcZivI6zKoGbWQBomnlFaDh0e2PHVn28jjPq+O3CACaKAIhE0mIsdn+WIBQBEIlkxc+y329Dg1AEIN61u3Mi0WSx/8YiCEUAYsjEu3bZORqTCO93d0ODUASg0DK6O2TY+Te4xJ8gFAHoNwbssoDx6JzGqecGEIoA9Jst5/hmEXbZQ7n7xxY0CEUA26F9M+Fy0xAIRQAqfbrVR+9u9m7o+mSBUASggredZwb6RGVPckEoArg20TSxb6eK8W7zigNCEYD6cccF+lbj5NkBhCIAFXcTS/24aYG+VT9+WgChCIBAIStu/ff8qBwQigDYdqaSnmEJQhGACppiUT92YgChCEClXJ/obucKj3YQigAIEyon2kEoAlBxz+5jR9/SAkIRABMsQCgCACAUAYDCtq4bBaEIAO5EB6EIAIBQBABAKAIAIBQBABCKAAAgFAEAEIoAAAhFAACEIgAAQhEAAKEIAIBQBABAKAIAIBQBABCKAAAIRQAAhCIAAOyEUAQAQCgCACAUAQAQigAAIBQBABCKAAAIRQAAhCIAAEIRAAChCACAUAQAQCgCACAUAQAQigAACEUAAIQiAAAIRQAAhCIAAEIRAAChCACAUAQAQCgCACAUAQAQigBA17MrQmUCoQgAgFAEoNi6IQAIRQD+TnHtqlBZ6KqE3wkIRQC61q8JVNaENy4QigD0ueK6NZUeJia8IBQBECd0PvtYqBggFAHoWL004NE4IBQB+Dudqx8MVMb1iZ2VFoogFAFcp+hOW8EOQhGAHnWsXBToW52/XRRAKAJQgZGysA/vfqa4fk3FbjuDUARwfVwfbn3SvuzaAEIRgIqOFVPFvpkmdiQTXRCKAFT0TS0dj9wS2LXa7rskVDwQigB0PHJz94SLXfbcxP6z5Q9CEcC1im2LLgjsms96y+J+9FmDUAQg3n0bJ4vsXDHI43Y/CEUA+pW2n12yc18nZ4u//245g1AEYMvtp++EN7bQsXJhd4iDUASgf19Dd9MpvRiLxM+y3V3OCEUAxCKZdznHz9KzKhGKAFRdLO7YNYu2m+NWvkhEKAJQnbHYmsSiu6G343FDiy+oiUcOIRQBcDd0nC56KHe+6xHjZ1Vbr+dDKALgOYut35ne/W5oep4ixqBuXTC9Nq/tRCgCIIbal10TNl91dPf1d2z9TK4NrVcebYseoQgA8c0i8fq7GIwxkmpwSzpODeN1iDEQYzzX3A0r0BAA4B8EY4ykuOpGjQ/146aF+rETQ93YSaEaxTvAO1YvjY+8Kec1fCAUAXATR1ztIZGoj7HYPKw7IKNC89D4537zv6XYunFrHMZpYW9edwhCEQA3v0S7+t3GgGsUAQAQigAACEUAAIQiAABCEQAAoQgAgFAEAEAoAgCAUAQAQCgCACAUAQAQigAACEUAAIQiAABCEQAAoQgAgFAEAEAoAgAgFAEAEIoAACAUAQAQigAACEUAAIQiAABCEQAAoQgAgFAEAEAoAgAgFAEAEIoAAAhFAACEIgAACEUAAIQiAABCEQAAoQgAgFAEAEAoAgAgFAEAEIoAAAhFAACEIgAAQhEAAKEIAIBQBAAAoQgAgFAEAEAoAgAgFAEAEIoAAAhFAACEIgAAQhEAAKEIAIBQBABAKAIAIBQBAEAoAgAgFAEAEIoAAAhFAACEIgAAQhEAAKEIAIBQBABAKAIAIBQBABCKAAAIRQAAEIoAAAhFAACEIgAAQhEAAKEIAIBQBABAKAIAIBQBABCKAAAIRQAAhCIAAEIRAAChCAAAQrG49ecbb7zxZsihbtS4AAAgFGvIypUr/xxyKAwfHaoTAFA3dlLIY8OGDS+VBk5FoVgDU8WXXnrpjXwTxfGhGgEA+XcOX3311ZdNFKtbe0i58sor/xxyqh83LQAAtTtRXL169V+EYnXblJkqFteuXfv/coXi+ONCdQEA4q5hoXlYyOOBBx74c3VvOwvF19ORGNeLL774l9qcKAIADUfODnm8+eabL//kJz95MbZDarUJxeqTDsWu5OzgsZBDPNtoOGxWqAoAQDy25x4EPffcc3EHsphZm4RiVSnVfyoU586d+7u2trY3Qw6NU88NAEC1TBPn5N52fuihhx6P3VBaW70uFKvPxvhLTq3OZ5555vG8j8lpnHpeAAD6t0LL6NwDoDhQOvPMMx+JzbB10FS9284miutTv+TOuK6//vp7y7iWoZ8/LgcAGDDjipDX7373u+WlZuhKrTeq98YWb2ZpS08UFyxY8KcXXnhhVd7rGZpmXNH9EwDof+LuYHwkTl7z5s27NxWKW6eK60JVMlGM6410KMafP/jBD+4s51b6xulfDgBAvxJvTC3rnoOnnnrq/959991rS73Q0cP9DlXIRPH1ZG2Jv/DSL779a1/72u/yThWjhkNnhaaZVwQAoP9EYtwVLMdFF110ZyoStw6YNgrF6lRMre6bWlKx2JGMlm8NURmx2HzqHZW/DQ0A7nAuOxKXL1++8J577llberNbR2ltiQOnKo5EE8XUtQWtqV98+4033vjnZcuWLSr3tT/NZ98X6pOfAEDlPStxwCe+G5pO/HIoxxtvvPHKOeecc2+qE0rXKJamiSaKVa2YumOpM3Wm0H7sscfembz0+z9CGeJjcwYkk8WmmW5yAYBK2mpu/uKvt+vtal/4whf+V3J94obMNLE1ThNrIxJtPcdQfC3G4tZI3LouvvjiG7ds2bIpRGVuRcf/IONZS3w+EwCw66TfpDYwHo+38yklS5Ysuf173/veM+k2qLlrE1MKoXYUUisGcn2yGpP1jmQNSdagZA1MVvPVV1991HmJsAO61q4KnauXhq5nV3T/udi6IQAAvSte/lUYNT75OXF7pofZZyb++uCDD15Qmh5uTq14EF+Tuqmlq/qiUShG6VCMqyFZb03WHjEQYyiWVvMtt9xy7Gc/+9nTQi+KwRh2OBgBgHifQG9as2bN6jFjxszLRGL88/pUJHZmIjGuqtYQalN2CzrGYX1q0lg/e/bs5cVisZD8/FzoJZX3VhcA4JVXXnnuuOOOuzo+IzGzNibrr+lArO5IFIrFUJJ5ld9fS5G4WyoYC3PmzFkeEqVYrDIAwJNPPvnwIYcccmMPkbgpWS/0EIlVzV3PqUhMrY5kvVA6c9hSWm3xZ4zFuXPnzi/d4FIlAIClS5feVYrE9tJxvzXVABvS283ZiaJQrKWpYs+x2Lr1rOKyyy77fXJx6xeef/75PwQAoF+Lw5+rrrrqumnTpi0sReKWzIqR+EotXpOYVR/IeiNZA1Lb8oWQeO211zqTu6F/c9BBB7W+K9HQ0NAYAIB+t9U8derUq+64444/p962snVA9GbpWYkvZqeJPQ+cXKNYK9PFYmqqGK3Zxv9f46xZs3627777PnznnXeekkwZp4SKBwDEXcHrr7/+7vnz5z9VCsC2uFKR+J+l43/8u47sdYnpP3uOYu39708/Mqe+tJqSNTpZw5I1ILUaS4HdkNwh9bbLL7/8I+PGjTt0wIABgwIAUHGBuGDBgp9+61vfWlUKxI7UNYlb4kpHousSs6FEobSibCw2lp6z2FJ6IPeAUkA2llZ9XMmEceiFF1542JQpUw7db7/9Dg0AQJ/ZsGHDq48++ugjyXWIDyc3rLycCr/2uNLTxNTDtNtFolAsJxbjaiitGIV7lR6f05SKxYb4MxWXdUk0Dj7ttNP2T65lfHsyadxv+PDhbxk2bNjuAQDYKTemvPTSS88nnlu9evWa5NKw1UkcvtLD0006MpG4qfQw7VdSr+nrKRIjocg2Y7E+FYxxuji89IDuxlIwNqRWXWoVUqtbMnUcFwCAHXbXXXf9xx//+MdN6ZBLBV5n/JmaELan1qa41ZwKxI5MJBbzRqJQFIuF9FZ0aoK4e+naxUGpv2vIvN0lG4uFXvnMAYDsDSbpUOxM/exMxWAMxA3bCsSckSgUyUZdKfhSEZiKw7eUgnFgKhQbxOIuBYBIzL5IozO13by59IzkV1N/19O1iF257272eBz/AaZ0pcIu+x/hi8l6tfQ5jkjW0GQ1pyIxvQrZEAWAHSIUo/RxuVj62Vp6LvJrmTDs7DkQy38Ejoki2elfejqYjcD6zEr/fSF113SjUASAHZAKxNQ1h+vSwZj6mYnDzBZzL281C0XBmF11PYZj5u9tPe9UANh6Tk8He1rFngMxEolCsfeni9nwq9tWRGbXdn/+AEAx8+ceVzYK+y4QhaJg7OEGmBxhCQDsnDufe/xzXwaiUBSM5fy5/M8fACjmmDD2/HcCEQAAAAAAAAAAAAAAAAAAAAAAAAAAAAAAAAAAAAAAAAAAAAAAAAAAAAAAAAAAAAAAAAAAAAAAAAAAAAAAAAAAAAAAAAAAAAAAAAAAAAAAAAAAAAAAAAAAAAAAAAAAAAAAAAAAAAAAAAAAAAAAAAAAAAAAAAAAAAAAAAAAAAAAAAAAAAAAAAAqx/8HVrSDCNH5z/kAAAAASUVORK5CYII=;" parent="1" vertex="1">
                    <mxGeometry x="360" y="310" width="60" height="60" as="geometry"/>
                </mxCell>
                <mxCell id="WJuXoSgcOFtOYXTd2K2z-14" style="edgeStyle=orthogonalEdgeStyle;rounded=0;orthogonalLoop=1;jettySize=auto;html=1;" parent="1" source="WJuXoSgcOFtOYXTd2K2z-13" target="WJuXoSgcOFtOYXTd2K2z-8" edge="1">
                    <mxGeometry relative="1" as="geometry"/>
                </mxCell>
                <mxCell id="10" style="edgeStyle=none;html=1;" edge="1" parent="1" source="WJuXoSgcOFtOYXTd2K2z-13" target="2">
                    <mxGeometry relative="1" as="geometry"/>
                </mxCell>
                <mxCell id="WJuXoSgcOFtOYXTd2K2z-13" value="" style="verticalLabelPosition=bottom;html=1;verticalAlign=top;align=center;strokeColor=none;fillColor=#00BEF2;shape=mxgraph.azure.worker_role;" parent="1" vertex="1">
                    <mxGeometry x="365" y="430" width="50" height="40" as="geometry"/>
                </mxCell>
                <UserObject label="Bank.Proposals.Worker" placeholders="1" name="Variable" id="WJuXoSgcOFtOYXTd2K2z-16">
                    <mxCell style="text;html=1;strokeColor=none;fillColor=none;align=center;verticalAlign=middle;whiteSpace=wrap;overflow=hidden;" parent="1" vertex="1">
                        <mxGeometry x="456" y="370" width="160" height="20" as="geometry"/>
                    </mxCell>
                </UserObject>
                <UserObject label="Bank.CreditCard.Worker" placeholders="1" name="Variable" id="WJuXoSgcOFtOYXTd2K2z-17">
                    <mxCell style="text;html=1;strokeColor=none;fillColor=none;align=center;verticalAlign=middle;whiteSpace=wrap;overflow=hidden;" parent="1" vertex="1">
                        <mxGeometry x="318.02" y="480" width="160" height="20" as="geometry"/>
                    </mxCell>
                </UserObject>
                <mxCell id="WJuXoSgcOFtOYXTd2K2z-26" style="edgeStyle=orthogonalEdgeStyle;rounded=0;orthogonalLoop=1;jettySize=auto;html=1;entryX=0.005;entryY=0.63;entryDx=0;entryDy=0;entryPerimeter=0;" parent="1" source="WJuXoSgcOFtOYXTd2K2z-20" target="WJuXoSgcOFtOYXTd2K2z-2" edge="1">
                    <mxGeometry relative="1" as="geometry"/>
                </mxCell>
            </root>
        </mxGraphModel>
    </diagram>
</mxfile>